<svg xmlns="http://www.w3.org/2000/svg" width="430" height="430" style="width:100%;height:100%;transform:translate3d(0,0,0);content-visibility:visible" viewBox="0 0 430 430"><defs><clipPath id="g"><path d="M0 0h430v430H0z"/></clipPath><clipPath id="j"><path d="M0 0h430v430H0z"/></clipPath><clipPath id="e"><path d="M0 0h430v430H0z"/></clipPath><clipPath id="h"><path d="M0 0h430v430H0z"/></clipPath><clipPath id="f"><path d="M0 0h430v430H0z"/></clipPath><filter id="a" width="100%" height="100%" x="0%" y="0%" filterUnits="objectBoundingBox"><feComponentTransfer in="SourceGraphic"><feFuncA tableValues="1.0 0.0" type="table"/></feComponentTransfer></filter><filter id="c" width="100%" height="100%" x="0%" y="0%" filterUnits="objectBoundingBox"><feComponentTransfer in="SourceGraphic"><feFuncA tableValues="1.0 0.0" type="table"/></feComponentTransfer></filter><mask id="k" mask-type="alpha"><g filter="url(#a)"><path fill="#fff" d="M0 0h430v430H0z" opacity="0"/><use xmlns:ns1="http://www.w3.org/1999/xlink" ns1:href="#b"/></g></mask><mask id="i" mask-type="alpha"><g filter="url(#c)"><path fill="#fff" d="M0 0h430v430H0z" opacity="0"/><use xmlns:ns2="http://www.w3.org/1999/xlink" ns2:href="#d"/></g></mask><g id="b" clip-path="url(#e)" style="display:none"><g style="display:none"><path fill-opacity="0" stroke-linecap="round" stroke-linejoin="round" class="primary"/><path/><path fill-opacity="0" stroke-linecap="round" stroke-linejoin="round" class="primary"/><path/><path fill-opacity="0" stroke-linecap="round" stroke-linejoin="round" class="primary"/><path/></g><g style="display:none"><path fill-opacity="0" stroke-linecap="round" stroke-linejoin="round" class="primary"/><path/><path fill-opacity="0" stroke-linecap="round" stroke-linejoin="round" class="primary"/><path/><path fill-opacity="0" stroke-linecap="round" stroke-linejoin="round" class="primary"/><path/></g><g style="display:none"><path fill-opacity="0" stroke-linecap="round" stroke-linejoin="round" class="primary"/><path/><path fill-opacity="0" stroke-linecap="round" stroke-linejoin="round" class="primary"/><path/><path fill-opacity="0" stroke-linecap="round" stroke-linejoin="round" class="primary"/><path/></g><g style="display:none"><path fill-opacity="0" stroke-linecap="round" stroke-linejoin="round" class="secondary"/><path/></g></g><g id="d" clip-path="url(#f)" style="display:block"><g style="display:block"><path fill-opacity="0" stroke="#121331" stroke-linecap="round" stroke-linejoin="round" stroke-width="0" d="M290.312 89.575h-45.786" class="primary"/><path fill="red" d="M290.312 89.575h-45.786"/><path fill-opacity="0" stroke="#121331" stroke-linecap="round" stroke-linejoin="round" stroke-width="0" d="M219.606 89.575h.078" class="primary"/><path fill="red" d="M219.606 89.575h.078"/><path fill-opacity="0" stroke="#121331" stroke-linecap="round" stroke-linejoin="round" stroke-width="0" d="m306.562 124.622-102.812.117c-6.6 0-12-5.4-12-12V67.122c0-6.6 5.4-12 12-12l102.812-.117c6.6 0 12 5.4 12 12v45.617c0 6.6-5.4 12-12 12z" class="primary"/><path fill="red" d="m306.562 124.622-102.812.117c-6.6 0-12-5.4-12-12V67.122c0-6.6 5.4-12 12-12l102.812-.117c6.6 0 12 5.4 12 12v45.617c0 6.6-5.4 12-12 12z"/></g><g style="display:block"><path fill-opacity="0" stroke="#121331" stroke-linecap="round" stroke-linejoin="round" stroke-width="0" d="M152.312 198.075h-45.786" class="primary"/><path fill="red" d="M152.312 198.075h-45.786"/><path fill-opacity="0" stroke="#121331" stroke-linecap="round" stroke-linejoin="round" stroke-width="0" d="M81.606 198.075h.078" class="primary"/><path fill="red" d="M81.606 198.075h.078"/><path fill-opacity="0" stroke="#121331" stroke-linecap="round" stroke-linejoin="round" stroke-width="0" d="m168.562 233.122-102.812.117c-6.6 0-12-5.4-12-12v-45.617c0-6.6 5.4-12 12-12l102.812-.117c6.6 0 12 5.4 12 12v45.617c0 6.6-5.4 12-12 12z" class="primary"/><path fill="red" d="m168.562 233.122-102.812.117c-6.6 0-12-5.4-12-12v-45.617c0-6.6 5.4-12 12-12l102.812-.117c6.6 0 12 5.4 12 12v45.617c0 6.6-5.4 12-12 12z"/></g><g style="display:block"><path fill-opacity="0" stroke="#121331" stroke-linecap="round" stroke-linejoin="round" stroke-width="0" d="M151.312 323.575h-45.786" class="primary"/><path fill="red" d="M151.312 323.575h-45.786"/><path fill-opacity="0" stroke="#121331" stroke-linecap="round" stroke-linejoin="round" stroke-width="0" d="M80.606 323.575h.078" class="primary"/><path fill="red" d="M80.606 323.575h.078"/><path fill-opacity="0" stroke="#121331" stroke-linecap="round" stroke-linejoin="round" stroke-width="0" d="m167.562 358.622-102.812.117c-6.6 0-12-5.4-12-12v-45.617c0-6.6 5.4-12 12-12l102.812-.117c6.6 0 12 5.4 12 12v45.617c0 6.6-5.4 12-12 12z" class="primary"/><path fill="red" d="m167.562 358.622-102.812.117c-6.6 0-12-5.4-12-12v-45.617c0-6.6 5.4-12 12-12l102.812-.117c6.6 0 12 5.4 12 12v45.617c0 6.6-5.4 12-12 12z"/></g><g style="display:block"><path fill-opacity="0" stroke="#08A88A" stroke-linecap="round" stroke-linejoin="round" stroke-width="0" d="M267.137 323.43c0-28.75 23.306-52.056 52.056-52.056 28.75 0 52.056 23.306 52.056 52.056 0 28.75-23.306 52.056-52.056 52.056-28.75 0-52.056-23.306-52.056-52.056z" class="secondary"/><path fill="red" d="M267.137 323.43c0-28.75 23.306-52.056 52.056-52.056 28.75 0 52.056 23.306 52.056 52.056 0 28.75-23.306 52.056-52.056 52.056-28.75 0-52.056-23.306-52.056-52.056z"/></g></g></defs><g clip-path="url(#g)"><g clip-path="url(#h)" style="display:block"><g mask="url(#i)" style="display:block"><path fill="none" stroke="#08A88A" stroke-linecap="round" stroke-linejoin="round" stroke-width="12.04" d="M321.75 323.433h-203.8v-124.48h106.84c17.4 0 31.51-14.11 31.51-31.5v-77.85" class="secondary"/></g><path fill="none" stroke="#121331" stroke-linecap="round" stroke-linejoin="round" stroke-width="12.04" d="M290.312 89.575h-45.786m-24.92 0h.078m86.878 35.047-102.812.117c-6.6 0-12-5.4-12-12V67.122c0-6.6 5.4-12 12-12l102.812-.117c6.6 0 12 5.4 12 12v45.617c0 6.6-5.4 12-12 12zm-154.25 73.453h-45.786m-24.92 0h.078m86.878 35.047-102.812.117c-6.6 0-12-5.4-12-12v-45.617c0-6.6 5.4-12 12-12l102.812-.117c6.6 0 12 5.4 12 12v45.617c0 6.6-5.4 12-12 12zm-17.25 90.453h-45.786m-24.92 0h.078m86.878 35.047-102.812.117c-6.6 0-12-5.4-12-12v-45.617c0-6.6 5.4-12 12-12l102.812-.117c6.6 0 12 5.4 12 12v45.617c0 6.6-5.4 12-12 12z" class="primary" style="display:block"/><g fill="none" stroke-linecap="round" stroke-linejoin="round" stroke-width="12.04" style="display:block"><path stroke="#08A88A" d="M267.137 323.43c0-28.75 23.306-52.056 52.056-52.056 28.75 0 52.056 23.306 52.056 52.056 0 28.75-23.306 52.056-52.056 52.056-28.75 0-52.056-23.306-52.056-52.056z" class="secondary"/><path stroke="#121331" d="m374.663 279.645-56.57 56.57-18.87-18.87" class="primary"/></g></g><g clip-path="url(#j)" style="display:none"><g mask="url(#k)" style="display:none"><path fill="none" class="secondary"/></g><g fill="none" style="display:none"><path class="primary"/><path class="primary"/><path class="primary"/></g><g fill="none" style="display:none"><path class="primary"/><path class="primary"/><path class="primary"/></g><g fill="none" style="display:none"><path class="primary"/><path class="primary"/><path class="primary"/></g><g fill="none" style="display:none"><path class="secondary"/><path class="primary"/></g></g></g></svg>